# xmcd
#
# Track frame offsets: 
#        150
#        13607
#        27068
#        40352
#        54364
#        68196
#        82746
#        96968
#        110258
#        124642
#        136715
#        148287
#        162129
#        175185
#        188647
#        201357
#        214297
#        228668
#        242997
#        255691
#        268131
#        282289
#        295591
#        309590
#        323281
#        335197
#
# Disc length: 4663 seconds
#
# Revision: 2
# Processed by: cddbd v1.5.2PL0 Copyright (c) Steve Scherf et al.
# Submitted via: ExactAudioCopy v0.95b4
#
DISCID=7a12351a
DTITLE=The Carter Family - Country Folk - Disc 3: My Dixie Darling
DYEAR=2007
DGENRE=Country
TTITLE0=My Dixie Darling
TTITLE1=Give Me Your Love And I'll Give You Mine
TTITLE2=Are You Lonesome Tonight?
TTITLE3=The Last Move For Me
TTITLE4=The Wayworn Traveller
TTITLE5=Just Another Broken Heart
TTITLE6=When Silver Threads Are Gold Again
TTITLE7=There's No One Like Mother To Me
TTITLE8=In A Little Village Churchyard
TTITLE9=Jealous Hearted Me
TTITLE10=My Native Home
TTITLE11=Sweet Heaven In My View
TTITLE12=No Depression (In Heaven)
TTITLE13=Bonnie Blue Eyes
TTITLE14=My Honey Lou
TTITLE15=In The Shadow Of The Pines
TTITLE16=Answer To The Weeping Willow
TTITLE17=You've Been A Friend To Me
TTITLE18=Where The Silvery Colorado Wends Its Way
TTITLE19=Lay My Head Beneath The Rose
TTITLE20=The Broken Down Tramp
TTITLE21=Lover's Lane
TTITLE22=Hold Fast To The Right
TTITLE23=Lord, I'm In Your Care
TTITLE24=Funny When You Fee That Way
TTITLE25=In The Shadow Of Clinch Mountain
EXTD=
EXTT0=
EXTT1=
EXTT2=
EXTT3=
EXTT4=
EXTT5=
EXTT6=
EXTT7=
EXTT8=
EXTT9=
EXTT10=
EXTT11=
EXTT12=
EXTT13=
EXTT14=
EXTT15=
EXTT16=
EXTT17=
EXTT18=
EXTT19=
EXTT20=
EXTT21=
EXTT22=
EXTT23=
EXTT24=
EXTT25=
PLAYORDER=
